<svg xmlns="http://www.w3.org/2000/svg" width="32" height="32" viewBox="0 0 32 32" fill="none">
<path fill-rule="evenodd" clip-rule="evenodd" d="M5.46026 5.46026C6.07394 4.84658 7.06892 4.84658 7.6826 5.46026L16 13.7777L24.3174 5.46026C24.9311 4.84658 25.9261 4.84658 26.5397 5.46026C27.1534 6.07394 27.1534 7.06892 26.5397 7.6826L18.2223 16L26.5397 24.3174C27.1534 24.9311 27.1534 25.9261 26.5397 26.5397C25.9261 27.1534 24.9311 27.1534 24.3174 26.5397L16 18.2223L7.6826 26.5397C7.06892 27.1534 6.07394 27.1534 5.46026 26.5397C4.84658 25.9261 4.84658 24.9311 5.46026 24.3174L13.7777 16L5.46026 7.6826C4.84658 7.06892 4.84658 6.07394 5.46026 5.46026Z" fill="#DEE0E3"/>
</svg>