<svg xmlns="http://www.w3.org/2000/svg" width="48" height="48" viewBox="0 0 48 48" fill="none">
<path fill-rule="evenodd" clip-rule="evenodd" d="M6 11C6 9.89543 6.89543 9 8 9H40C41.1046 9 42 9.89543 42 11V33C42 33.3643 41.9026 33.7058 41.7324 34H44.8077C44.9139 34 45 34.0861 45 34.1923C45 36.8475 42.8475 39 40.1923 39H7.80769C5.15248 39 3 36.8475 3 34.1923C3 34.0861 3.0861 34 3.19231 34H6.26756C6.09739 33.7058 6 33.3643 6 33V11ZM10 12C9.44772 12 9 12.4477 9 13V31C9 31.5523 9.44772 32 10 32H38C38.5523 32 39 31.5523 39 31V13C39 12.4477 38.5523 12 38 12H10Z" fill="#00E183"/>
</svg>