<svg xmlns="http://www.w3.org/2000/svg" width="48" height="48" viewBox="0 0 48 48" fill="none">
<path fill-rule="evenodd" clip-rule="evenodd" d="M24 44C35.0457 44 44 35.0457 44 24C44 12.9543 35.0457 4 24 4C12.9543 4 4 12.9543 4 24C4 35.0457 12.9543 44 24 44ZM23.0511 28.1617V30.3966H14.0172V28.3363C15.8102 27.2363 17.2929 26.1887 18.3445 25.1935C19.5169 24.0935 19.9824 23.1856 19.9824 21.9983C19.9824 20.846 19.4307 20.2174 18.4307 20.2174C17.4136 20.2174 16.8102 20.8809 16.8102 21.9634C16.8102 22.2602 16.8619 22.592 16.9308 22.9586L14.1034 22.6793C14.0345 22.365 14 22.0333 14 21.7364C14 19.4666 15.7585 18 18.5687 18C21.3271 18 22.9477 19.3793 22.9477 21.7888C22.9477 23.4126 22.2408 24.7919 20.7926 26.1014C19.9996 26.7998 19.0169 27.4808 17.8101 28.1617H23.0511ZM32.207 25.6649H34V27.7252H32.207V30.3966H29.4658V27.7252H23.949V25.8221L29.1383 18.2619H32.207V25.6649ZM26.3798 25.6649H29.5693V22.1729C29.5693 21.5444 29.5693 21.265 29.6037 20.8285H29.5693C29.4141 21.2301 29.2072 21.5618 28.8797 22.0682L27.1729 24.6173C26.8281 25.1237 26.6212 25.403 26.3798 25.6649Z" fill="#00E183"/>
</svg>