<svg xmlns="http://www.w3.org/2000/svg" width="48" height="48" viewBox="0 0 48 48" fill="none">
<path fill-rule="evenodd" clip-rule="evenodd" d="M7 11C7 10.4477 7.44772 10 8 10H12.5V7C12.5 6.44772 12.9477 6 13.5 6C14.0523 6 14.5 6.44772 14.5 7V10H19C19.5523 10 20 10.4477 20 11V19H19C17.3431 19 16 20.3431 16 22V38H14.5V41C14.5 41.5523 14.0523 42 13.5 42C12.9477 42 12.5 41.5523 12.5 41V38H8C7.44772 38 7 37.5523 7 37V11ZM23 42C23 42.5523 23.4477 43 24 43C24.5523 43 25 42.5523 25 42V39H29C29.5523 39 30 38.5523 30 38V22C30 21.4477 29.5523 21 29 21H25V18C25 17.4477 24.5523 17 24 17C23.4477 17 23 17.4477 23 18V21H19C18.4477 21 18 21.4477 18 22V38C18 38.5523 18.4477 39 19 39H23V42ZM40 12C40.5523 12 41 12.4477 41 13V33C41 33.5523 40.5523 34 40 34H35.5V37C35.5 37.5523 35.0523 38 34.5 38C33.9477 38 33.5 37.5523 33.5 37V34H32V22C32 20.3431 30.6569 19 29 19H28V13C28 12.4477 28.4477 12 29 12H33.5V9C33.5 8.44772 33.9477 8 34.5 8C35.0523 8 35.5 8.44772 35.5 9V12H40Z" fill="#00E183"/>
</svg>