<svg xmlns="http://www.w3.org/2000/svg" width="48" height="48" viewBox="0 0 48 48" fill="none">
<path fill-rule="evenodd" clip-rule="evenodd" d="M24 44C35.0457 44 44 35.0457 44 24C44 12.9543 35.0457 4 24 4C12.9543 4 4 12.9543 4 24C4 35.0457 12.9543 44 24 44ZM20.7894 31.622C21.5081 31.7247 22.2194 31.7907 22.9234 31.82V33.8H24.9694V31.776C26.5974 31.5853 27.7634 31.0793 28.4674 30.258C29.1861 29.422 29.5454 28.3953 29.5454 27.178C29.5454 26.386 29.4134 25.726 29.1494 25.198C28.9001 24.6553 28.5628 24.208 28.1374 23.856C27.7268 23.504 27.2574 23.218 26.7294 22.998C26.2014 22.778 25.6588 22.5873 25.1014 22.426V18.686C25.7028 18.7153 26.3041 18.796 26.9054 18.928C27.5068 19.0453 28.0421 19.2067 28.5114 19.412V16.53C28.0568 16.398 27.5508 16.288 26.9934 16.2C26.4361 16.0973 25.8128 16.0313 25.1234 16.002V14H23.1214V16.024C21.6254 16.156 20.4814 16.5667 19.6894 17.256C18.9121 17.9453 18.5234 18.9573 18.5234 20.292C18.5234 21.04 18.6554 21.6633 18.9194 22.162C19.1834 22.6607 19.5281 23.086 19.9534 23.438C20.3788 23.7753 20.8554 24.054 21.3834 24.274C21.9114 24.4793 22.4394 24.6627 22.9674 24.824V29.114C22.3221 29.0847 21.6034 28.9893 20.8114 28.828C20.0341 28.6667 19.3374 28.4247 18.7214 28.102V31.182C19.3961 31.3873 20.0854 31.534 20.7894 31.622ZM25.9374 26.254C26.2014 26.5767 26.3334 26.9507 26.3334 27.376C26.3334 27.728 26.2308 28.0507 26.0254 28.344C25.8201 28.6227 25.4608 28.8353 24.9474 28.982V25.44C25.3581 25.6453 25.6881 25.9167 25.9374 26.254ZM22.0214 21.15C21.7428 20.8567 21.6034 20.4973 21.6034 20.072C21.6034 19.6907 21.7281 19.3973 21.9774 19.192C22.2268 18.9867 22.6081 18.84 23.1214 18.752V21.854C22.6668 21.6633 22.3001 21.4287 22.0214 21.15Z" fill="#00E183"/>
</svg>